<svg xmlns="http://www.w3.org/2000/svg" xmlns:xlink="http://www.w3.org/1999/xlink" width="1080" zoomAndPan="magnify" viewBox="0 0 810 1012.49997" height="1350" preserveAspectRatio="xMidYMid meet" version="1.2"><defs><clipPath id="d40bdf6295"><path d="M 139 147.15625 L 671.558594 147.15625 L 671.558594 1012 L 139 1012 Z M 139 147.15625 "/></clipPath><clipPath id="543ff5b218"><path d="M 201.96875 147.15625 L 608.589844 147.15625 C 625.292969 147.15625 641.308594 153.789062 653.117188 165.601562 C 664.925781 177.410156 671.558594 193.425781 671.558594 210.125 L 671.558594 1026.007812 C 671.558594 1042.707031 664.925781 1058.726562 653.117188 1070.535156 C 641.308594 1082.34375 625.292969 1088.976562 608.589844 1088.976562 L 201.96875 1088.976562 C 185.269531 1088.976562 169.253906 1082.34375 157.445312 1070.535156 C 145.636719 1058.726562 139 1042.707031 139 1026.007812 L 139 210.125 C 139 193.425781 145.636719 177.410156 157.445312 165.601562 C 169.253906 153.789062 185.269531 147.15625 201.96875 147.15625 Z M 201.96875 147.15625 "/></clipPath><clipPath id="cc821c715d"><path d="M 131.078125 403 L 139 403 L 139 501 L 131.078125 501 Z M 131.078125 403 "/></clipPath><clipPath id="4fe0b56785"><path d="M 131.078125 514 L 139 514 L 139 612 L 131.078125 612 Z M 131.078125 514 "/></clipPath><clipPath id="68d7fcb404"><path d="M 137 147.15625 L 673 147.15625 L 673 1012 L 137 1012 Z M 137 147.15625 "/></clipPath><clipPath id="d3bacf74ff"><path d="M 545 467 L 572 467 L 572 490 L 545 490 Z M 545 467 "/></clipPath><clipPath id="efd4fcb1a4"><path d="M 547.46875 466.019531 L 572.863281 470.292969 L 569.261719 491.675781 L 543.871094 487.398438 Z M 547.46875 466.019531 "/></clipPath><clipPath id="1fa58b8c56"><path d="M 560.140625 468.152344 C 553.140625 466.972656 546.664062 470.804688 545.671875 476.710938 C 544.675781 482.613281 549.542969 488.355469 556.539062 489.53125 C 563.535156 490.710938 570.011719 486.878906 571.007812 480.976562 C 572 475.070312 567.136719 469.328125 560.140625 468.152344 Z M 560.140625 468.152344 "/></clipPath><clipPath id="9a6976316e"><path d="M 558 478 L 567 478 L 567 487 L 558 487 Z M 558 478 "/></clipPath><clipPath id="8ff3bfb9e4"><path d="M 552.890625 483.03125 L 559.125 466.957031 L 581.492188 475.632812 L 575.253906 491.707031 Z M 552.890625 483.03125 "/></clipPath><clipPath id="b38f246b84"><path d="M 552.890625 483.03125 L 559.125 466.957031 L 581.492188 475.632812 L 575.253906 491.707031 Z M 552.890625 483.03125 "/></clipPath><clipPath id="38a4002aa7"><path d="M 563 471 L 568 471 L 568 476 L 563 476 Z M 563 471 "/></clipPath><clipPath id="a0627a9d92"><path d="M 552.890625 483.03125 L 559.125 466.957031 L 581.492188 475.632812 L 575.253906 491.707031 Z M 552.890625 483.03125 "/></clipPath><clipPath id="cc0242815f"><path d="M 552.890625 483.03125 L 559.125 466.957031 L 581.492188 475.632812 L 575.253906 491.707031 Z M 552.890625 483.03125 "/></clipPath><clipPath id="2004df5d63"><path d="M 571 475 L 580 475 L 580 485 L 571 485 Z M 571 475 "/></clipPath><clipPath id="3cd6f948f2"><path d="M 552.890625 483.03125 L 559.125 466.957031 L 581.492188 475.632812 L 575.253906 491.707031 Z M 552.890625 483.03125 "/></clipPath><clipPath id="c5576ebedb"><path d="M 552.890625 483.03125 L 559.125 466.957031 L 581.492188 475.632812 L 575.253906 491.707031 Z M 552.890625 483.03125 "/></clipPath><clipPath id="19115a7859"><path d="M 393 546.824219 L 400 546.824219 L 400 560 L 393 560 Z M 393 546.824219 "/></clipPath><clipPath id="9e2a761841"><path d="M 411 571 L 423.910156 571 L 423.910156 578 L 411 578 Z M 411 571 "/></clipPath><clipPath id="320d4343ee"><path d="M 393 589 L 399 589 L 399 602.296875 L 393 602.296875 Z M 393 589 "/></clipPath><clipPath id="c88824f0cc"><path d="M 368.4375 571 L 382 571 L 382 578 L 368.4375 578 Z M 368.4375 571 "/></clipPath></defs><g id="64321d5e5f"><g clip-rule="nonzero" clip-path="url(#d40bdf6295)"><g clip-rule="nonzero" clip-path="url(#543ff5b218)"><path style=" stroke:none;fill-rule:nonzero;fill:#edffcf;fill-opacity:1;" d="M 139 147.15625 L 671.558594 147.15625 L 671.558594 1089.535156 L 139 1089.535156 Z M 139 147.15625 "/></g></g><path style=" stroke:none;fill-rule:nonzero;fill:#a677ff;fill-opacity:1;" d="M 134.238281 307.5625 L 138.6875 307.5625 L 138.6875 341.445312 L 134.238281 341.445312 C 133.992188 341.445312 133.753906 341.398438 133.527344 341.304688 C 133.300781 341.210938 133.097656 341.074219 132.921875 340.902344 C 132.75 340.726562 132.613281 340.527344 132.519531 340.296875 C 132.425781 340.070312 132.378906 339.832031 132.378906 339.585938 L 132.378906 309.433594 C 132.378906 309.1875 132.425781 308.953125 132.519531 308.722656 C 132.613281 308.496094 132.75 308.292969 132.921875 308.121094 C 133.097656 307.945312 133.300781 307.8125 133.527344 307.71875 C 133.753906 307.621094 133.992188 307.574219 134.238281 307.574219 Z M 134.238281 307.5625 "/><g clip-rule="nonzero" clip-path="url(#cc821c715d)"><path style=" stroke:none;fill-rule:nonzero;fill:#a677ff;fill-opacity:1;" d="M 137.386719 403.632812 C 136.972656 403.636719 136.5625 403.679688 136.15625 403.761719 C 135.753906 403.84375 135.359375 403.960938 134.976562 404.121094 C 134.59375 404.28125 134.230469 404.476562 133.886719 404.707031 C 133.542969 404.9375 133.226562 405.199219 132.933594 405.488281 C 132.640625 405.78125 132.378906 406.101562 132.148438 406.445312 C 131.917969 406.789062 131.722656 407.152344 131.566406 407.535156 C 131.40625 407.914062 131.285156 408.308594 131.203125 408.714844 C 131.121094 409.121094 131.078125 409.53125 131.078125 409.945312 L 131.078125 494.445312 C 131.078125 494.859375 131.121094 495.269531 131.203125 495.675781 C 131.285156 496.082031 131.40625 496.476562 131.566406 496.855469 C 131.722656 497.238281 131.917969 497.601562 132.148438 497.945312 C 132.378906 498.289062 132.640625 498.609375 132.933594 498.898438 C 133.226562 499.191406 133.542969 499.453125 133.886719 499.683594 C 134.230469 499.914062 134.59375 500.109375 134.976562 500.269531 C 135.359375 500.425781 135.753906 500.546875 136.15625 500.628906 C 136.5625 500.710938 136.972656 500.753906 137.386719 500.753906 L 138.714844 500.753906 L 138.714844 403.632812 Z M 137.386719 403.632812 "/></g><g clip-rule="nonzero" clip-path="url(#4fe0b56785)"><path style=" stroke:none;fill-rule:nonzero;fill:#a677ff;fill-opacity:1;" d="M 131.078125 520.492188 L 131.078125 604.984375 C 131.082031 605.394531 131.125 605.804688 131.207031 606.207031 C 131.289062 606.613281 131.414062 607.003906 131.574219 607.382812 C 131.734375 607.761719 131.929688 608.125 132.160156 608.464844 C 132.390625 608.808594 132.652344 609.125 132.941406 609.414062 C 133.234375 609.707031 133.554688 609.964844 133.898438 610.195312 C 134.238281 610.421875 134.601562 610.613281 134.984375 610.773438 C 135.363281 610.929688 135.757812 611.050781 136.160156 611.128906 C 136.566406 611.210938 136.972656 611.25 137.386719 611.253906 L 138.714844 611.253906 L 138.714844 514.183594 L 137.386719 514.183594 C 136.972656 514.1875 136.5625 514.226562 136.15625 514.308594 C 135.753906 514.390625 135.359375 514.511719 134.976562 514.671875 C 134.59375 514.832031 134.230469 515.027344 133.886719 515.253906 C 133.542969 515.484375 133.226562 515.746094 132.933594 516.039062 C 132.640625 516.332031 132.378906 516.652344 132.148438 516.996094 C 131.917969 517.339844 131.722656 517.703125 131.566406 518.082031 C 131.40625 518.464844 131.285156 518.859375 131.203125 519.265625 C 131.121094 519.671875 131.078125 520.078125 131.078125 520.492188 Z M 131.078125 520.492188 "/></g><path style=" stroke:none;fill-rule:nonzero;fill:#a677ff;fill-opacity:1;" d="M 672.601562 567.15625 L 671.273438 567.15625 L 671.273438 442.300781 L 672.601562 442.300781 C 673.019531 442.300781 673.429688 442.339844 673.835938 442.421875 C 674.242188 442.5 674.636719 442.621094 675.019531 442.78125 C 675.402344 442.9375 675.765625 443.132812 676.109375 443.363281 C 676.453125 443.59375 676.773438 443.855469 677.066406 444.148438 C 677.359375 444.441406 677.621094 444.757812 677.847656 445.105469 C 678.078125 445.449219 678.273438 445.8125 678.433594 446.195312 C 678.589844 446.578125 678.710938 446.972656 678.792969 447.378906 C 678.871094 447.785156 678.914062 448.195312 678.914062 448.609375 L 678.914062 560.84375 C 678.914062 561.261719 678.871094 561.671875 678.792969 562.078125 C 678.710938 562.484375 678.589844 562.878906 678.433594 563.261719 C 678.273438 563.644531 678.078125 564.007812 677.847656 564.351562 C 677.621094 564.695312 677.359375 565.015625 677.066406 565.308594 C 676.773438 565.601562 676.453125 565.863281 676.109375 566.089844 C 675.765625 566.320312 675.402344 566.515625 675.019531 566.675781 C 674.636719 566.832031 674.242188 566.953125 673.835938 567.035156 C 673.429688 567.113281 673.019531 567.15625 672.601562 567.15625 Z M 672.601562 567.15625 "/><g clip-rule="nonzero" clip-path="url(#68d7fcb404)"><path style=" stroke:none;fill-rule:nonzero;fill:#a677ff;fill-opacity:1;" d="M 607.109375 1244.824219 L 202.882812 1244.824219 C 201.808594 1244.824219 200.738281 1244.796875 199.667969 1244.742188 C 198.597656 1244.691406 197.53125 1244.609375 196.460938 1244.503906 C 195.394531 1244.398438 194.332031 1244.265625 193.273438 1244.105469 C 192.210938 1243.949219 191.15625 1243.765625 190.105469 1243.554688 C 189.054688 1243.34375 188.007812 1243.109375 186.96875 1242.847656 C 185.929688 1242.585938 184.898438 1242.296875 183.871094 1241.988281 C 182.84375 1241.675781 181.828125 1241.339844 180.820312 1240.976562 C 179.808594 1240.613281 178.8125 1240.226562 177.820312 1239.816406 C 176.832031 1239.40625 175.851562 1238.972656 174.882812 1238.511719 C 173.914062 1238.054688 172.957031 1237.570312 172.011719 1237.066406 C 171.066406 1236.558594 170.132812 1236.03125 169.214844 1235.480469 C 168.296875 1234.929688 167.390625 1234.355469 166.5 1233.757812 C 165.609375 1233.164062 164.730469 1232.546875 163.871094 1231.90625 C 163.011719 1231.269531 162.164062 1230.609375 161.335938 1229.929688 C 160.507812 1229.25 159.695312 1228.546875 158.902344 1227.828125 C 158.109375 1227.109375 157.332031 1226.371094 156.574219 1225.613281 C 155.816406 1224.855469 155.078125 1224.078125 154.359375 1223.285156 C 153.636719 1222.488281 152.9375 1221.675781 152.257812 1220.847656 C 151.578125 1220.019531 150.917969 1219.175781 150.277344 1218.316406 C 149.640625 1217.453125 149.023438 1216.578125 148.425781 1215.6875 C 147.832031 1214.796875 147.257812 1213.890625 146.707031 1212.972656 C 146.15625 1212.050781 145.625 1211.121094 145.121094 1210.175781 C 144.613281 1209.230469 144.132812 1208.273438 143.671875 1207.304688 C 143.214844 1206.335938 142.78125 1205.355469 142.367188 1204.367188 C 141.957031 1203.375 141.570312 1202.375 141.210938 1201.367188 C 140.847656 1200.359375 140.511719 1199.339844 140.199219 1198.316406 C 139.886719 1197.289062 139.601562 1196.257812 139.339844 1195.21875 C 139.078125 1194.175781 138.84375 1193.132812 138.632812 1192.082031 C 138.421875 1191.03125 138.238281 1189.972656 138.078125 1188.914062 C 137.921875 1187.851562 137.789062 1186.789062 137.683594 1185.722656 C 137.578125 1184.65625 137.496094 1183.589844 137.441406 1182.515625 C 137.390625 1181.445312 137.363281 1180.375 137.359375 1179.304688 L 137.359375 213.21875 C 137.363281 212.144531 137.390625 211.074219 137.441406 210.003906 C 137.496094 208.933594 137.578125 207.863281 137.683594 206.796875 C 137.789062 205.730469 137.921875 204.667969 138.078125 203.605469 C 138.238281 202.546875 138.421875 201.492188 138.632812 200.441406 C 138.84375 199.386719 139.078125 198.34375 139.339844 197.304688 C 139.601562 196.265625 139.886719 195.230469 140.199219 194.207031 C 140.511719 193.179688 140.847656 192.164062 141.210938 191.152344 C 141.570312 190.144531 141.957031 189.144531 142.367188 188.15625 C 142.78125 187.164062 143.214844 186.183594 143.671875 185.214844 C 144.132812 184.246094 144.613281 183.289062 145.121094 182.347656 C 145.625 181.402344 146.15625 180.46875 146.707031 179.550781 C 147.257812 178.628906 147.832031 177.726562 148.425781 176.832031 C 149.023438 175.941406 149.640625 175.066406 150.277344 174.207031 C 150.917969 173.34375 151.578125 172.5 152.257812 171.671875 C 152.9375 170.84375 153.636719 170.03125 154.359375 169.238281 C 155.078125 168.441406 155.816406 167.667969 156.574219 166.910156 C 157.332031 166.152344 158.109375 165.410156 158.902344 164.691406 C 159.695312 163.972656 160.507812 163.273438 161.335938 162.59375 C 162.164062 161.910156 163.011719 161.253906 163.871094 160.613281 C 164.730469 159.976562 165.609375 159.359375 166.5 158.761719 C 167.390625 158.164062 168.296875 157.59375 169.214844 157.039062 C 170.132812 156.488281 171.066406 155.960938 172.011719 155.453125 C 172.957031 154.949219 173.914062 154.46875 174.882812 154.007812 C 175.851562 153.550781 176.832031 153.113281 177.820312 152.703125 C 178.8125 152.292969 179.808594 151.90625 180.820312 151.542969 C 181.828125 151.183594 182.84375 150.847656 183.871094 150.535156 C 184.898438 150.222656 185.929688 149.933594 186.96875 149.675781 C 188.007812 149.414062 189.054688 149.175781 190.105469 148.96875 C 191.15625 148.757812 192.210938 148.574219 193.273438 148.414062 C 194.332031 148.257812 195.394531 148.125 196.460938 148.015625 C 197.53125 147.910156 198.597656 147.832031 199.667969 147.777344 C 200.738281 147.722656 201.808594 147.695312 202.882812 147.695312 L 607.109375 147.695312 C 608.179688 147.695312 609.25 147.722656 610.320312 147.777344 C 611.394531 147.832031 612.460938 147.910156 613.527344 148.015625 C 614.59375 148.121094 615.660156 148.253906 616.71875 148.414062 C 617.78125 148.570312 618.835938 148.753906 619.886719 148.964844 C 620.9375 149.175781 621.984375 149.410156 623.023438 149.671875 C 624.0625 149.933594 625.097656 150.21875 626.121094 150.53125 C 627.148438 150.84375 628.164062 151.179688 629.175781 151.542969 C 630.183594 151.902344 631.183594 152.289062 632.171875 152.699219 C 633.164062 153.109375 634.144531 153.546875 635.113281 154.003906 C 636.082031 154.460938 637.039062 154.945312 637.984375 155.449219 C 638.929688 155.957031 639.863281 156.484375 640.78125 157.035156 C 641.699219 157.585938 642.605469 158.160156 643.496094 158.757812 C 644.390625 159.351562 645.265625 159.96875 646.125 160.609375 C 646.988281 161.246094 647.832031 161.90625 648.660156 162.585938 C 649.488281 163.265625 650.300781 163.96875 651.09375 164.6875 C 651.890625 165.40625 652.667969 166.144531 653.425781 166.90625 C 654.183594 167.664062 654.921875 168.4375 655.640625 169.234375 C 656.363281 170.027344 657.0625 170.839844 657.742188 171.667969 C 658.421875 172.496094 659.082031 173.339844 659.722656 174.203125 C 660.359375 175.0625 660.976562 175.9375 661.574219 176.828125 C 662.167969 177.71875 662.742188 178.625 663.292969 179.546875 C 663.847656 180.464844 664.375 181.398438 664.882812 182.34375 C 665.386719 183.289062 665.871094 184.246094 666.328125 185.214844 C 666.789062 186.183594 667.222656 187.160156 667.632812 188.152344 C 668.042969 189.140625 668.429688 190.140625 668.792969 191.152344 C 669.15625 192.160156 669.492188 193.175781 669.804688 194.203125 C 670.117188 195.230469 670.402344 196.261719 670.664062 197.300781 C 670.925781 198.339844 671.160156 199.386719 671.371094 200.4375 C 671.582031 201.488281 671.765625 202.546875 671.921875 203.605469 C 672.082031 204.664062 672.214844 205.730469 672.320312 206.796875 C 672.425781 207.863281 672.507812 208.933594 672.5625 210.003906 C 672.613281 211.074219 672.640625 212.144531 672.644531 213.21875 L 672.644531 1179.304688 C 672.640625 1180.375 672.613281 1181.445312 672.5625 1182.519531 C 672.507812 1183.589844 672.425781 1184.65625 672.320312 1185.722656 C 672.214844 1186.789062 672.082031 1187.855469 671.921875 1188.914062 C 671.765625 1189.976562 671.582031 1191.03125 671.371094 1192.082031 C 671.160156 1193.132812 670.925781 1194.179688 670.664062 1195.21875 C 670.402344 1196.257812 670.117188 1197.292969 669.804688 1198.316406 C 669.492188 1199.34375 669.152344 1200.359375 668.792969 1201.371094 C 668.429688 1202.378906 668.042969 1203.378906 667.632812 1204.367188 C 667.222656 1205.359375 666.789062 1206.339844 666.328125 1207.308594 C 665.871094 1208.277344 665.386719 1209.234375 664.882812 1210.179688 C 664.375 1211.125 663.847656 1212.054688 663.292969 1212.976562 C 662.742188 1213.894531 662.167969 1214.800781 661.574219 1215.691406 C 660.976562 1216.582031 660.359375 1217.457031 659.722656 1218.320312 C 659.082031 1219.179688 658.421875 1220.023438 657.742188 1220.855469 C 657.0625 1221.683594 656.363281 1222.492188 655.640625 1223.289062 C 654.921875 1224.082031 654.183594 1224.859375 653.425781 1225.617188 C 652.664062 1226.375 651.890625 1227.113281 651.09375 1227.832031 C 650.300781 1228.554688 649.488281 1229.253906 648.660156 1229.933594 C 647.832031 1230.613281 646.988281 1231.273438 646.125 1231.910156 C 645.265625 1232.550781 644.390625 1233.167969 643.496094 1233.761719 C 642.605469 1234.359375 641.699219 1234.933594 640.78125 1235.484375 C 639.863281 1236.035156 638.929688 1236.5625 637.984375 1237.070312 C 637.039062 1237.574219 636.082031 1238.058594 635.113281 1238.515625 C 634.144531 1238.976562 633.164062 1239.410156 632.171875 1239.820312 C 631.183594 1240.230469 630.183594 1240.617188 629.175781 1240.980469 C 628.164062 1241.339844 627.148438 1241.679688 626.121094 1241.988281 C 625.097656 1242.300781 624.0625 1242.589844 623.023438 1242.847656 C 621.984375 1243.109375 620.9375 1243.347656 619.886719 1243.554688 C 618.835938 1243.765625 617.78125 1243.949219 616.71875 1244.109375 C 615.660156 1244.265625 614.59375 1244.398438 613.527344 1244.503906 C 612.460938 1244.609375 611.394531 1244.691406 610.320312 1244.742188 C 609.25 1244.796875 608.179688 1244.824219 607.109375 1244.824219 Z M 202.882812 150.351562 C 200.824219 150.351562 198.769531 150.457031 196.722656 150.660156 C 194.675781 150.863281 192.640625 151.167969 190.621094 151.570312 C 188.605469 151.972656 186.609375 152.472656 184.640625 153.074219 C 182.671875 153.671875 180.734375 154.367188 178.835938 155.152344 C 176.933594 155.941406 175.074219 156.824219 173.261719 157.792969 C 171.445312 158.765625 169.683594 159.824219 167.972656 160.964844 C 166.261719 162.109375 164.609375 163.335938 163.019531 164.640625 C 161.425781 165.949219 159.90625 167.328125 158.449219 168.785156 C 156.992188 170.238281 155.613281 171.761719 154.308594 173.351562 C 153 174.945312 151.777344 176.59375 150.632812 178.304688 C 149.488281 180.015625 148.429688 181.78125 147.460938 183.59375 C 146.488281 185.410156 145.609375 187.269531 144.820312 189.167969 C 144.03125 191.070312 143.335938 193.007812 142.738281 194.976562 C 142.140625 196.945312 141.636719 198.9375 141.234375 200.957031 C 140.832031 202.976562 140.527344 205.007812 140.324219 207.058594 C 140.121094 209.105469 140.019531 211.160156 140.015625 213.21875 L 140.015625 1179.304688 C 140.019531 1181.363281 140.121094 1183.414062 140.324219 1185.464844 C 140.527344 1187.511719 140.832031 1189.546875 141.234375 1191.5625 C 141.636719 1193.582031 142.140625 1195.574219 142.738281 1197.546875 C 143.335938 1199.515625 144.03125 1201.449219 144.820312 1203.351562 C 145.609375 1205.253906 146.488281 1207.109375 147.460938 1208.925781 C 148.429688 1210.738281 149.488281 1212.503906 150.632812 1214.214844 C 151.777344 1215.925781 153 1217.578125 154.308594 1219.167969 C 155.613281 1220.757812 156.992188 1222.28125 158.449219 1223.738281 C 159.90625 1225.191406 161.425781 1226.574219 163.019531 1227.878906 C 164.609375 1229.183594 166.261719 1230.410156 167.972656 1231.554688 C 169.683594 1232.699219 171.445312 1233.753906 173.261719 1234.726562 C 175.074219 1235.699219 176.933594 1236.578125 178.835938 1237.367188 C 180.734375 1238.15625 182.671875 1238.847656 184.640625 1239.449219 C 186.609375 1240.046875 188.605469 1240.546875 190.621094 1240.949219 C 192.640625 1241.355469 194.675781 1241.65625 196.722656 1241.859375 C 198.769531 1242.066406 200.824219 1242.167969 202.882812 1242.167969 L 607.109375 1242.167969 C 609.167969 1242.167969 611.21875 1242.0625 613.269531 1241.859375 C 615.316406 1241.65625 617.351562 1241.355469 619.367188 1240.949219 C 621.386719 1240.546875 623.382812 1240.046875 625.351562 1239.449219 C 627.320312 1238.847656 629.253906 1238.15625 631.15625 1237.367188 C 633.058594 1236.578125 634.917969 1235.699219 636.730469 1234.726562 C 638.546875 1233.757812 640.308594 1232.699219 642.023438 1231.554688 C 643.734375 1230.410156 645.382812 1229.1875 646.976562 1227.878906 C 648.566406 1226.574219 650.089844 1225.191406 651.546875 1223.738281 C 653 1222.28125 654.382812 1220.757812 655.6875 1219.167969 C 656.996094 1217.578125 658.21875 1215.925781 659.363281 1214.214844 C 660.507812 1212.503906 661.566406 1210.742188 662.539062 1208.925781 C 663.507812 1207.109375 664.390625 1205.253906 665.179688 1203.351562 C 665.96875 1201.449219 666.660156 1199.515625 667.261719 1197.546875 C 667.859375 1195.578125 668.363281 1193.582031 668.765625 1191.5625 C 669.167969 1189.546875 669.472656 1187.511719 669.675781 1185.464844 C 669.878906 1183.414062 669.984375 1181.363281 669.988281 1179.304688 L 669.988281 213.21875 C 669.984375 211.160156 669.878906 209.105469 669.675781 207.058594 C 669.472656 205.007812 669.167969 202.976562 668.765625 200.957031 C 668.363281 198.9375 667.859375 196.945312 667.261719 194.972656 C 666.660156 193.003906 665.96875 191.070312 665.179688 189.167969 C 664.390625 187.265625 663.507812 185.410156 662.539062 183.59375 C 661.566406 181.78125 660.507812 180.015625 659.363281 178.304688 C 658.21875 176.59375 656.996094 174.941406 655.6875 173.351562 C 654.382812 171.761719 653 170.238281 651.546875 168.78125 C 650.089844 167.328125 648.566406 165.945312 646.976562 164.640625 C 645.382812 163.335938 643.734375 162.109375 642.023438 160.964844 C 640.308594 159.820312 638.546875 158.765625 636.730469 157.792969 C 634.917969 156.824219 633.058594 155.941406 631.15625 155.152344 C 629.253906 154.367188 627.320312 153.671875 625.351562 153.074219 C 623.382812 152.472656 621.386719 151.972656 619.367188 151.570312 C 617.351562 151.167969 615.316406 150.863281 613.269531 150.660156 C 611.21875 150.457031 609.167969 150.351562 607.109375 150.351562 Z M 202.882812 150.351562 "/></g><path style=" stroke:none;fill-rule:nonzero;fill:#a677ff;fill-opacity:1;" d="M 316.671875 166.289062 L 493.328125 166.289062 C 493.851562 166.289062 494.371094 166.316406 494.890625 166.367188 C 495.410156 166.417969 495.925781 166.496094 496.441406 166.597656 C 496.953125 166.699219 497.457031 166.824219 497.957031 166.976562 C 498.457031 167.128906 498.949219 167.304688 499.429688 167.503906 C 499.910156 167.703125 500.382812 167.925781 500.84375 168.171875 C 501.304688 168.417969 501.75 168.6875 502.183594 168.976562 C 502.621094 169.265625 503.039062 169.578125 503.441406 169.90625 C 503.84375 170.238281 504.230469 170.589844 504.601562 170.957031 C 504.96875 171.328125 505.320312 171.714844 505.652344 172.117188 C 505.980469 172.519531 506.292969 172.941406 506.582031 173.375 C 506.871094 173.808594 507.140625 174.253906 507.386719 174.714844 C 507.632812 175.175781 507.855469 175.648438 508.054688 176.128906 C 508.253906 176.613281 508.429688 177.101562 508.582031 177.601562 C 508.734375 178.101562 508.859375 178.609375 508.960938 179.121094 C 509.066406 179.632812 509.140625 180.148438 509.191406 180.667969 C 509.242188 181.1875 509.269531 181.707031 509.269531 182.230469 L 509.269531 183.558594 C 509.269531 184.078125 509.242188 184.601562 509.191406 185.121094 C 509.140625 185.640625 509.066406 186.15625 508.960938 186.667969 C 508.859375 187.179688 508.734375 187.683594 508.582031 188.183594 C 508.429688 188.683594 508.253906 189.175781 508.054688 189.65625 C 507.855469 190.140625 507.632812 190.609375 507.386719 191.070312 C 507.140625 191.53125 506.871094 191.976562 506.582031 192.414062 C 506.292969 192.847656 505.980469 193.265625 505.652344 193.667969 C 505.320312 194.074219 504.96875 194.457031 504.601562 194.828125 C 504.230469 195.195312 503.84375 195.546875 503.441406 195.878906 C 503.039062 196.210938 502.621094 196.519531 502.183594 196.808594 C 501.75 197.101562 501.304688 197.367188 500.84375 197.613281 C 500.382812 197.859375 499.910156 198.082031 499.429688 198.28125 C 498.949219 198.484375 498.457031 198.660156 497.957031 198.808594 C 497.457031 198.960938 496.953125 199.089844 496.441406 199.191406 C 495.925781 199.292969 495.410156 199.367188 494.890625 199.417969 C 494.371094 199.46875 493.851562 199.496094 493.328125 199.496094 L 316.671875 199.496094 C 316.152344 199.496094 315.628906 199.46875 315.109375 199.417969 C 314.589844 199.367188 314.074219 199.292969 313.5625 199.191406 C 313.050781 199.089844 312.546875 198.960938 312.046875 198.808594 C 311.546875 198.660156 311.054688 198.484375 310.574219 198.28125 C 310.089844 198.082031 309.621094 197.859375 309.160156 197.613281 C 308.699219 197.367188 308.253906 197.101562 307.816406 196.808594 C 307.382812 196.519531 306.964844 196.210938 306.5625 195.878906 C 306.160156 195.546875 305.773438 195.195312 305.402344 194.828125 C 305.035156 194.457031 304.683594 194.074219 304.351562 193.667969 C 304.019531 193.265625 303.710938 192.847656 303.421875 192.414062 C 303.128906 191.976562 302.863281 191.53125 302.617188 191.070312 C 302.371094 190.609375 302.148438 190.140625 301.949219 189.65625 C 301.746094 189.175781 301.570312 188.683594 301.421875 188.183594 C 301.269531 187.683594 301.140625 187.179688 301.039062 186.667969 C 300.9375 186.15625 300.863281 185.640625 300.8125 185.121094 C 300.761719 184.601562 300.734375 184.078125 300.734375 183.558594 L 300.734375 182.230469 C 300.734375 181.707031 300.761719 181.1875 300.8125 180.667969 C 300.863281 180.148438 300.9375 179.632812 301.039062 179.121094 C 301.140625 178.609375 301.269531 178.101562 301.421875 177.601562 C 301.570312 177.101562 301.746094 176.613281 301.949219 176.128906 C 302.148438 175.648438 302.371094 175.175781 302.617188 174.714844 C 302.863281 174.253906 303.128906 173.808594 303.421875 173.375 C 303.710938 172.941406 304.019531 172.519531 304.351562 172.117188 C 304.683594 171.714844 305.035156 171.328125 305.402344 170.957031 C 305.773438 170.589844 306.160156 170.238281 306.5625 169.90625 C 306.964844 169.578125 307.382812 169.265625 307.816406 168.976562 C 308.253906 168.6875 308.699219 168.417969 309.160156 168.171875 C 309.621094 167.925781 310.089844 167.703125 310.574219 167.503906 C 311.054688 167.304688 311.546875 167.128906 312.046875 166.976562 C 312.546875 166.824219 313.050781 166.699219 313.5625 166.597656 C 314.074219 166.496094 314.589844 166.417969 315.109375 166.367188 C 315.628906 166.316406 316.152344 166.289062 316.671875 166.289062 Z M 316.671875 166.289062 "/><g style="fill:#4caf50;fill-opacity:1;"><g transform="translate(231.991185, 513.571165)"><path style="stroke:none" d="M 3.03125 -11.09375 C 3.03125 -13.40625 2.878906 -15.398438 2.578125 -17.078125 C 2.273438 -18.765625 2.179688 -20.09375 2.296875 -21.0625 C 2.410156 -22.03125 3.140625 -22.515625 4.484375 -22.515625 C 5.378906 -22.515625 6.273438 -21.972656 7.171875 -20.890625 C 8.066406 -19.804688 9.09375 -18.460938 10.25 -16.859375 C 11.40625 -15.253906 12.785156 -13.648438 14.390625 -12.046875 C 15.992188 -10.441406 17.914062 -9.097656 20.15625 -8.015625 C 22.394531 -6.929688 25.046875 -6.390625 28.109375 -6.390625 C 29.898438 -6.390625 31.375 -6.707031 32.53125 -7.34375 C 33.695312 -7.976562 34.28125 -9.113281 34.28125 -10.75 C 34.28125 -12.25 33.515625 -13.519531 31.984375 -14.5625 C 30.453125 -15.601562 28.488281 -16.628906 26.09375 -17.640625 C 23.707031 -18.648438 21.171875 -19.734375 18.484375 -20.890625 C 15.796875 -22.046875 13.253906 -23.445312 10.859375 -25.09375 C 8.472656 -26.738281 6.53125 -28.773438 5.03125 -31.203125 C 3.539062 -33.628906 2.796875 -36.554688 2.796875 -39.984375 C 2.796875 -44.765625 4.550781 -48.742188 8.0625 -51.921875 C 11.570312 -55.097656 16.800781 -56.6875 23.75 -56.6875 C 25.914062 -56.6875 27.6875 -56.570312 29.0625 -56.34375 C 30.445312 -56.125 31.960938 -56.015625 33.609375 -56.015625 C 34.878906 -56.015625 36.015625 -56.125 37.015625 -56.34375 C 38.023438 -56.570312 38.90625 -56.6875 39.65625 -56.6875 C 40.25 -56.6875 40.75 -56.570312 41.15625 -56.34375 C 41.570312 -56.125 41.929688 -55.675781 42.234375 -55 C 43.953125 -51.269531 45.3125 -48.054688 46.3125 -45.359375 C 47.320312 -42.671875 47.710938 -40.617188 47.484375 -39.203125 C 47.265625 -37.785156 46.035156 -37.078125 43.796875 -37.078125 C 42.523438 -37.078125 41.328125 -37.726562 40.203125 -39.03125 C 39.085938 -40.34375 37.953125 -41.875 36.796875 -43.625 C 35.640625 -45.382812 34.273438 -46.914062 32.703125 -48.21875 C 31.140625 -49.53125 29.273438 -50.1875 27.109375 -50.1875 C 25.015625 -50.1875 23.40625 -49.625 22.28125 -48.5 C 21.164062 -47.382812 20.609375 -45.890625 20.609375 -44.015625 C 20.609375 -42.304688 21.335938 -40.867188 22.796875 -39.703125 C 24.253906 -38.546875 26.101562 -37.5 28.34375 -36.5625 C 30.582031 -35.632812 32.988281 -34.644531 35.5625 -33.59375 C 38.132812 -32.550781 40.539062 -31.285156 42.78125 -29.796875 C 45.03125 -28.304688 46.878906 -26.4375 48.328125 -24.1875 C 49.785156 -21.945312 50.515625 -19.113281 50.515625 -15.6875 C 50.515625 -12.101562 49.394531 -9.097656 47.15625 -6.671875 C 44.914062 -4.242188 42.054688 -2.410156 38.578125 -1.171875 C 35.109375 0.0546875 31.4375 0.671875 27.5625 0.671875 C 24.71875 0.671875 22.304688 0.554688 20.328125 0.328125 C 18.347656 0.109375 15.941406 0 13.109375 0 C 11.242188 0 9.859375 0.109375 8.953125 0.328125 C 8.054688 0.554688 6.828125 0.671875 5.265625 0.671875 C 3.773438 0.671875 2.894531 0.128906 2.625 -0.953125 C 2.363281 -2.035156 2.363281 -3.472656 2.625 -5.265625 C 2.894531 -7.054688 3.03125 -9 3.03125 -11.09375 Z M 3.03125 -11.09375 "/></g></g><g style="fill:#4caf50;fill-opacity:1;"><g transform="translate(281.827431, 513.571165)"><path style="stroke:none" d="M 0.5625 -42.671875 C 0.5625 -43.796875 1.007812 -44.546875 1.90625 -44.921875 C 2.800781 -45.296875 3.882812 -45.484375 5.15625 -45.484375 C 6.570312 -45.484375 8.0625 -45.367188 9.625 -45.140625 C 11.195312 -44.921875 12.546875 -44.8125 13.671875 -44.8125 C 15.085938 -44.8125 16.65625 -44.921875 18.375 -45.140625 C 20.09375 -45.367188 21.660156 -45.484375 23.078125 -45.484375 C 24.421875 -45.484375 25.539062 -45.296875 26.4375 -44.921875 C 27.332031 -44.546875 27.78125 -43.796875 27.78125 -42.671875 C 27.78125 -41.628906 27.460938 -40.882812 26.828125 -40.4375 C 26.191406 -39.988281 25.875 -39.09375 25.875 -37.75 C 25.875 -35.882812 26.359375 -33.625 27.328125 -30.96875 C 28.296875 -28.320312 29.269531 -25.914062 30.25 -23.75 C 30.914062 -22.101562 31.625 -22.140625 32.375 -23.859375 C 33.414062 -26.242188 34.441406 -28.757812 35.453125 -31.40625 C 36.460938 -34.0625 36.96875 -36.175781 36.96875 -37.75 C 36.96875 -39.09375 36.59375 -40.046875 35.84375 -40.609375 C 35.09375 -41.171875 34.757812 -41.972656 34.84375 -43.015625 C 34.84375 -43.984375 35.101562 -44.632812 35.625 -44.96875 C 36.144531 -45.3125 36.78125 -45.484375 37.53125 -45.484375 C 38.34375 -45.484375 39.21875 -45.367188 40.15625 -45.140625 C 41.09375 -44.921875 41.894531 -44.8125 42.5625 -44.8125 C 43.238281 -44.8125 44.0625 -44.921875 45.03125 -45.140625 C 46 -45.367188 46.894531 -45.484375 47.71875 -45.484375 C 48.46875 -45.484375 49.082031 -45.332031 49.5625 -45.03125 C 50.050781 -44.726562 50.296875 -44.128906 50.296875 -43.234375 C 50.296875 -42.265625 50.015625 -41.5 49.453125 -40.9375 C 48.890625 -40.382812 48.140625 -39.710938 47.203125 -38.921875 C 46.273438 -38.140625 45.195312 -36.890625 43.96875 -35.171875 C 42.738281 -33.453125 41.410156 -30.875 39.984375 -27.4375 C 38.347656 -23.332031 36.519531 -19.28125 34.5 -15.28125 C 32.476562 -11.289062 30.570312 -7.28125 28.78125 -3.25 C 27.664062 -0.632812 26.363281 0.671875 24.875 0.671875 C 23.445312 0.671875 22.097656 -0.632812 20.828125 -3.25 C 19.859375 -5.488281 18.796875 -7.859375 17.640625 -10.359375 C 16.484375 -12.859375 15.378906 -15.285156 14.328125 -17.640625 C 13.285156 -19.992188 12.375 -22.03125 11.59375 -23.75 C 10.8125 -25.46875 10.269531 -26.625 9.96875 -27.21875 C 8.550781 -30.507812 7.265625 -32.992188 6.109375 -34.671875 C 4.953125 -36.347656 3.960938 -37.597656 3.140625 -38.421875 C 2.316406 -39.242188 1.679688 -39.929688 1.234375 -40.484375 C 0.785156 -41.046875 0.5625 -41.773438 0.5625 -42.671875 Z M 0.5625 -42.671875 "/></g></g><g style="fill:#4caf50;fill-opacity:1;"><g transform="translate(329.759799, 513.571165)"><path style="stroke:none" d="M 14.5625 0.671875 C 10.382812 0.671875 7.285156 -0.554688 5.265625 -3.015625 C 3.242188 -5.484375 2.234375 -8.4375 2.234375 -11.875 C 2.234375 -16.875 4.097656 -20.8125 7.828125 -23.6875 C 11.566406 -26.5625 16.425781 -28.632812 22.40625 -29.90625 C 28.082031 -31.101562 30.921875 -32.972656 30.921875 -35.515625 C 30.921875 -36.484375 30.507812 -37.429688 29.6875 -38.359375 C 28.863281 -39.296875 27.441406 -39.765625 25.421875 -39.765625 C 23.410156 -39.765625 21.769531 -39.222656 20.5 -38.140625 C 19.226562 -37.054688 18.109375 -35.820312 17.140625 -34.4375 C 16.171875 -33.0625 15.101562 -31.832031 13.9375 -30.75 C 12.78125 -29.664062 11.234375 -29.125 9.296875 -29.125 C 8.023438 -29.125 6.921875 -29.570312 5.984375 -30.46875 C 5.054688 -31.363281 4.59375 -32.445312 4.59375 -33.71875 C 4.59375 -36.257812 5.597656 -38.40625 7.609375 -40.15625 C 9.628906 -41.914062 12.265625 -43.242188 15.515625 -44.140625 C 18.765625 -45.035156 22.289062 -45.484375 26.09375 -45.484375 C 30.207031 -45.484375 33.941406 -44.828125 37.296875 -43.515625 C 40.660156 -42.210938 43.347656 -40.03125 45.359375 -36.96875 C 47.378906 -33.90625 48.390625 -29.722656 48.390625 -24.421875 L 48.390625 -14.453125 C 48.390625 -11.835938 48.578125 -9.859375 48.953125 -8.515625 C 49.328125 -7.171875 49.773438 -6.179688 50.296875 -5.546875 C 50.816406 -4.910156 51.265625 -4.382812 51.640625 -3.96875 C 52.015625 -3.5625 52.203125 -2.945312 52.203125 -2.125 C 52.203125 -1.007812 51.863281 -0.265625 51.1875 0.109375 C 50.519531 0.484375 49.660156 0.671875 48.609375 0.671875 C 47.492188 0.671875 46.265625 0.554688 44.921875 0.328125 C 43.578125 0.109375 42.34375 0 41.21875 0 C 40.019531 0 38.972656 0.0546875 38.078125 0.171875 C 37.179688 0.285156 36.25 0.414062 35.28125 0.5625 C 34.09375 0.707031 33.03125 0.554688 32.09375 0.109375 C 31.15625 -0.335938 30.613281 -1.160156 30.46875 -2.359375 C 30.394531 -3.546875 30.207031 -4.34375 29.90625 -4.75 C 29.601562 -5.164062 29.226562 -5.375 28.78125 -5.375 C 27.96875 -5.375 26.90625 -4.867188 25.59375 -3.859375 C 24.289062 -2.859375 22.722656 -1.851562 20.890625 -0.84375 C 19.054688 0.164062 16.945312 0.671875 14.5625 0.671875 Z M 19.609375 -16.46875 C 19.609375 -14.300781 20.144531 -12.75 21.21875 -11.8125 C 22.300781 -10.882812 23.59375 -10.421875 25.09375 -10.421875 C 26.957031 -10.421875 28.375 -11.222656 29.34375 -12.828125 C 30.3125 -14.429688 30.796875 -16.316406 30.796875 -18.484375 L 30.796875 -23.859375 C 30.796875 -25.878906 29.863281 -26.398438 28 -25.421875 C 26.8125 -24.828125 25.5625 -24.175781 24.25 -23.46875 C 22.945312 -22.757812 21.847656 -21.878906 20.953125 -20.828125 C 20.054688 -19.785156 19.609375 -18.332031 19.609375 -16.46875 Z M 19.609375 -16.46875 "/></g></g><g style="fill:#4caf50;fill-opacity:1;"><g transform="translate(380.156024, 513.571165)"><path style="stroke:none" d="M 2.234375 -22.296875 C 2.234375 -29.234375 4.4375 -34.832031 8.84375 -39.09375 C 13.25 -43.351562 19.410156 -45.484375 27.328125 -45.484375 C 34.203125 -45.484375 39.410156 -43.953125 42.953125 -40.890625 C 46.503906 -37.828125 48.28125 -33.976562 48.28125 -29.34375 C 48.28125 -26.8125 47.382812 -24.535156 45.59375 -22.515625 C 43.800781 -20.492188 41.335938 -19.484375 38.203125 -19.484375 C 35.660156 -19.484375 33.566406 -20.359375 31.921875 -22.109375 C 30.273438 -23.867188 29.453125 -25.796875 29.453125 -27.890625 C 29.453125 -30.359375 29.617188 -32.46875 29.953125 -34.21875 C 30.296875 -35.976562 30.429688 -37.34375 30.359375 -38.3125 C 30.285156 -39.28125 29.648438 -39.765625 28.453125 -39.765625 C 26.585938 -39.765625 25 -38.210938 23.6875 -35.109375 C 22.382812 -32.015625 21.769531 -27.816406 21.84375 -22.515625 C 21.914062 -17.515625 22.789062 -13.5 24.46875 -10.46875 C 26.15625 -7.445312 28.675781 -5.972656 32.03125 -6.046875 C 34.269531 -6.046875 35.929688 -6.53125 37.015625 -7.5 C 38.097656 -8.476562 38.957031 -9.597656 39.59375 -10.859375 C 40.226562 -12.128906 40.878906 -13.25 41.546875 -14.21875 C 42.222656 -15.195312 43.269531 -15.6875 44.6875 -15.6875 C 45.957031 -15.6875 46.910156 -15.289062 47.546875 -14.5 C 48.179688 -13.71875 48.5 -12.84375 48.5 -11.875 C 48.5 -9.332031 47.507812 -7.128906 45.53125 -5.265625 C 43.550781 -3.398438 40.914062 -1.941406 37.625 -0.890625 C 34.34375 0.148438 30.800781 0.671875 27 0.671875 C 23.039062 0.671875 19.15625 -0.09375 15.34375 -1.625 C 11.539062 -3.15625 8.40625 -5.617188 5.9375 -9.015625 C 3.46875 -12.410156 2.234375 -16.835938 2.234375 -22.296875 Z M 16.6875 -57.125 C 16.539062 -57.28125 16.335938 -57.523438 16.078125 -57.859375 C 15.816406 -58.191406 15.757812 -58.507812 15.90625 -58.8125 C 16.132812 -59.101562 16.921875 -59.066406 18.265625 -58.703125 C 19.234375 -58.398438 20.40625 -57.988281 21.78125 -57.46875 C 23.164062 -56.945312 24.421875 -56.5 25.546875 -56.125 C 26.359375 -55.820312 26.953125 -55.671875 27.328125 -55.671875 C 27.703125 -55.671875 28.300781 -55.820312 29.125 -56.125 C 30.238281 -56.5 31.488281 -56.945312 32.875 -57.46875 C 34.257812 -57.988281 35.4375 -58.398438 36.40625 -58.703125 C 37.75 -59.066406 38.53125 -59.101562 38.75 -58.8125 C 38.90625 -58.507812 38.851562 -58.191406 38.59375 -57.859375 C 38.332031 -57.523438 38.125 -57.28125 37.96875 -57.125 C 36.101562 -55.257812 34.515625 -53.726562 33.203125 -52.53125 C 31.898438 -51.34375 30.390625 -49.890625 28.671875 -48.171875 C 27.773438 -47.273438 26.878906 -47.273438 25.984375 -48.171875 C 24.335938 -49.804688 22.84375 -51.238281 21.5 -52.46875 C 20.15625 -53.707031 18.550781 -55.257812 16.6875 -57.125 Z M 16.6875 -57.125 "/></g></g><g style="fill:#4caf50;fill-opacity:1;"><g transform="translate(427.976403, 513.571165)"><path style="stroke:none" d="M 14.21875 0 C 13.101562 0 11.78125 0.109375 10.25 0.328125 C 8.71875 0.554688 7.28125 0.671875 5.9375 0.671875 C 4.664062 0.671875 3.597656 0.484375 2.734375 0.109375 C 1.878906 -0.265625 1.453125 -1.007812 1.453125 -2.125 C 1.453125 -2.945312 1.640625 -3.5625 2.015625 -3.96875 C 2.390625 -4.382812 2.835938 -4.910156 3.359375 -5.546875 C 3.878906 -6.179688 4.328125 -7.171875 4.703125 -8.515625 C 5.078125 -9.859375 5.265625 -11.835938 5.265625 -14.453125 C 5.265625 -17.890625 5.28125 -20.375 5.3125 -21.90625 C 5.351562 -23.4375 5.375 -24.554688 5.375 -25.265625 C 5.375 -25.972656 5.375 -26.773438 5.375 -27.671875 C 5.375 -29.679688 5.054688 -31.078125 4.421875 -31.859375 C 3.785156 -32.648438 3.148438 -33.269531 2.515625 -33.71875 C 1.878906 -34.164062 1.5625 -34.875 1.5625 -35.84375 C 1.5625 -36.96875 1.9375 -37.734375 2.6875 -38.140625 C 3.4375 -38.546875 4.5 -38.898438 5.875 -39.203125 C 7.257812 -39.503906 8.921875 -39.988281 10.859375 -40.65625 C 13.253906 -41.550781 14.898438 -42.351562 15.796875 -43.0625 C 16.691406 -43.78125 17.363281 -44.363281 17.8125 -44.8125 C 18.257812 -45.257812 18.96875 -45.484375 19.9375 -45.484375 C 21.28125 -45.484375 22.175781 -44.882812 22.625 -43.6875 C 23.070312 -42.488281 23.296875 -41.066406 23.296875 -39.421875 L 23.296875 -14.453125 C 23.296875 -11.835938 23.484375 -9.859375 23.859375 -8.515625 C 24.234375 -7.171875 24.679688 -6.179688 25.203125 -5.546875 C 25.722656 -4.910156 26.171875 -4.382812 26.546875 -3.96875 C 26.921875 -3.5625 27.109375 -2.945312 27.109375 -2.125 C 27.109375 -1.007812 26.675781 -0.265625 25.8125 0.109375 C 24.957031 0.484375 23.894531 0.671875 22.625 0.671875 C 21.207031 0.671875 19.734375 0.554688 18.203125 0.328125 C 16.671875 0.109375 15.34375 0 14.21875 0 Z M 1.453125 -48.609375 C 0.710938 -50.847656 1.101562 -53.273438 2.625 -55.890625 C 4.15625 -58.503906 6.492188 -60.632812 9.640625 -62.28125 C 12.242188 -63.625 14.628906 -64.296875 16.796875 -64.296875 C 20.085938 -64.296875 22.21875 -62.953125 23.1875 -60.265625 C 24.007812 -57.953125 23.65625 -55.523438 22.125 -52.984375 C 20.59375 -50.441406 18.257812 -48.3125 15.125 -46.59375 C 12.4375 -45.25 10.007812 -44.578125 7.84375 -44.578125 C 4.632812 -44.578125 2.503906 -45.921875 1.453125 -48.609375 Z M 1.453125 -48.609375 "/></g></g><g style="fill:#4caf50;fill-opacity:1;"><g transform="translate(453.174252, 513.571165)"><path style="stroke:none" d="M 1.125 -2.125 C 1.125 -2.945312 1.304688 -3.5625 1.671875 -3.96875 C 2.046875 -4.382812 2.492188 -4.910156 3.015625 -5.546875 C 3.546875 -6.179688 3.992188 -7.171875 4.359375 -8.515625 C 4.734375 -9.859375 4.921875 -11.835938 4.921875 -14.453125 C 4.921875 -17.890625 4.941406 -20.375 4.984375 -21.90625 C 5.023438 -23.4375 5.046875 -24.554688 5.046875 -25.265625 C 5.046875 -25.972656 5.046875 -26.773438 5.046875 -27.671875 C 5.046875 -29.679688 4.726562 -31.078125 4.09375 -31.859375 C 3.457031 -32.648438 2.820312 -33.269531 2.1875 -33.71875 C 1.550781 -34.164062 1.234375 -34.875 1.234375 -35.84375 C 1.234375 -36.96875 1.601562 -37.734375 2.34375 -38.140625 C 3.09375 -38.546875 4.15625 -38.898438 5.53125 -39.203125 C 6.914062 -39.503906 8.582031 -39.988281 10.53125 -40.65625 C 12.914062 -41.550781 14.554688 -42.351562 15.453125 -43.0625 C 16.347656 -43.78125 17.019531 -44.363281 17.46875 -44.8125 C 17.914062 -45.257812 18.628906 -45.484375 19.609375 -45.484375 C 20.953125 -45.484375 21.847656 -44.882812 22.296875 -43.6875 C 22.742188 -42.488281 22.96875 -41.066406 22.96875 -39.421875 L 22.96875 -38.53125 C 22.96875 -37.488281 23.148438 -36.96875 23.515625 -36.96875 C 23.890625 -36.96875 24.488281 -37.394531 25.3125 -38.25 C 26.132812 -39.113281 27.195312 -40.101562 28.5 -41.21875 C 29.8125 -42.34375 31.378906 -43.332031 33.203125 -44.1875 C 35.035156 -45.050781 37.109375 -45.484375 39.421875 -45.484375 C 42.929688 -45.484375 45.582031 -44.734375 47.375 -43.234375 C 49.175781 -41.742188 50.390625 -39.878906 51.015625 -37.640625 C 51.648438 -35.398438 51.96875 -33.117188 51.96875 -30.796875 L 51.96875 -14.453125 C 51.96875 -11.835938 52.15625 -9.859375 52.53125 -8.515625 C 52.90625 -7.171875 53.351562 -6.179688 53.875 -5.546875 C 54.394531 -4.910156 54.84375 -4.382812 55.21875 -3.96875 C 55.59375 -3.5625 55.78125 -2.945312 55.78125 -2.125 C 55.78125 -1.007812 55.460938 -0.265625 54.828125 0.109375 C 54.191406 0.484375 53.351562 0.671875 52.3125 0.671875 C 51.269531 0.671875 50.054688 0.554688 48.671875 0.328125 C 47.285156 0.109375 45.957031 0 44.6875 0 C 43.5 0 42.472656 0.0546875 41.609375 0.171875 C 40.753906 0.285156 39.84375 0.414062 38.875 0.5625 C 37.375 0.707031 36.15625 0.367188 35.21875 -0.453125 C 34.289062 -1.273438 33.828125 -2.429688 33.828125 -3.921875 L 33.828125 -22.296875 C 33.828125 -25.878906 33.453125 -28.601562 32.703125 -30.46875 C 31.960938 -32.332031 30.617188 -33.265625 28.671875 -33.265625 C 26.953125 -33.265625 25.570312 -32.382812 24.53125 -30.625 C 23.488281 -28.875 22.96875 -25.273438 22.96875 -19.828125 L 22.96875 -14.453125 C 22.96875 -11.835938 23.148438 -9.859375 23.515625 -8.515625 C 23.890625 -7.171875 24.335938 -6.179688 24.859375 -5.546875 C 25.390625 -4.910156 25.835938 -4.382812 26.203125 -3.96875 C 26.578125 -3.5625 26.765625 -2.945312 26.765625 -2.125 C 26.765625 -1.007812 26.335938 -0.265625 25.484375 0.109375 C 24.628906 0.484375 23.566406 0.671875 22.296875 0.671875 C 20.867188 0.671875 19.390625 0.554688 17.859375 0.328125 C 16.328125 0.109375 15.003906 0 13.890625 0 C 12.765625 0 11.4375 0.109375 9.90625 0.328125 C 8.375 0.554688 6.9375 0.671875 5.59375 0.671875 C 4.332031 0.671875 3.269531 0.484375 2.40625 0.109375 C 1.550781 -0.265625 1.125 -1.007812 1.125 -2.125 Z M 1.125 -2.125 "/></g></g><g style="fill:#4caf50;fill-opacity:1;"><g transform="translate(507.154236, 513.571165)"><path style="stroke:none" d="M 14.5625 0.671875 C 10.382812 0.671875 7.285156 -0.554688 5.265625 -3.015625 C 3.242188 -5.484375 2.234375 -8.4375 2.234375 -11.875 C 2.234375 -16.875 4.097656 -20.8125 7.828125 -23.6875 C 11.566406 -26.5625 16.425781 -28.632812 22.40625 -29.90625 C 28.082031 -31.101562 30.921875 -32.972656 30.921875 -35.515625 C 30.921875 -36.484375 30.507812 -37.429688 29.6875 -38.359375 C 28.863281 -39.296875 27.441406 -39.765625 25.421875 -39.765625 C 23.410156 -39.765625 21.769531 -39.222656 20.5 -38.140625 C 19.226562 -37.054688 18.109375 -35.820312 17.140625 -34.4375 C 16.171875 -33.0625 15.101562 -31.832031 13.9375 -30.75 C 12.78125 -29.664062 11.234375 -29.125 9.296875 -29.125 C 8.023438 -29.125 6.921875 -29.570312 5.984375 -30.46875 C 5.054688 -31.363281 4.59375 -32.445312 4.59375 -33.71875 C 4.59375 -36.257812 5.597656 -38.40625 7.609375 -40.15625 C 9.628906 -41.914062 12.265625 -43.242188 15.515625 -44.140625 C 18.765625 -45.035156 22.289062 -45.484375 26.09375 -45.484375 C 30.207031 -45.484375 33.941406 -44.828125 37.296875 -43.515625 C 40.660156 -42.210938 43.347656 -40.03125 45.359375 -36.96875 C 47.378906 -33.90625 48.390625 -29.722656 48.390625 -24.421875 L 48.390625 -14.453125 C 48.390625 -11.835938 48.578125 -9.859375 48.953125 -8.515625 C 49.328125 -7.171875 49.773438 -6.179688 50.296875 -5.546875 C 50.816406 -4.910156 51.265625 -4.382812 51.640625 -3.96875 C 52.015625 -3.5625 52.203125 -2.945312 52.203125 -2.125 C 52.203125 -1.007812 51.863281 -0.265625 51.1875 0.109375 C 50.519531 0.484375 49.660156 0.671875 48.609375 0.671875 C 47.492188 0.671875 46.265625 0.554688 44.921875 0.328125 C 43.578125 0.109375 42.34375 0 41.21875 0 C 40.019531 0 38.972656 0.0546875 38.078125 0.171875 C 37.179688 0.285156 36.25 0.414062 35.28125 0.5625 C 34.09375 0.707031 33.03125 0.554688 32.09375 0.109375 C 31.15625 -0.335938 30.613281 -1.160156 30.46875 -2.359375 C 30.394531 -3.546875 30.207031 -4.34375 29.90625 -4.75 C 29.601562 -5.164062 29.226562 -5.375 28.78125 -5.375 C 27.96875 -5.375 26.90625 -4.867188 25.59375 -3.859375 C 24.289062 -2.859375 22.722656 -1.851562 20.890625 -0.84375 C 19.054688 0.164062 16.945312 0.671875 14.5625 0.671875 Z M 19.609375 -16.46875 C 19.609375 -14.300781 20.144531 -12.75 21.21875 -11.8125 C 22.300781 -10.882812 23.59375 -10.421875 25.09375 -10.421875 C 26.957031 -10.421875 28.375 -11.222656 29.34375 -12.828125 C 30.3125 -14.429688 30.796875 -16.316406 30.796875 -18.484375 L 30.796875 -23.859375 C 30.796875 -25.878906 29.863281 -26.398438 28 -25.421875 C 26.8125 -24.828125 25.5625 -24.175781 24.25 -23.46875 C 22.945312 -22.757812 21.847656 -21.878906 20.953125 -20.828125 C 20.054688 -19.785156 19.609375 -18.332031 19.609375 -16.46875 Z M 19.609375 -16.46875 "/></g></g><g clip-rule="nonzero" clip-path="url(#d3bacf74ff)"><g clip-rule="nonzero" clip-path="url(#efd4fcb1a4)"><g clip-rule="nonzero" clip-path="url(#1fa58b8c56)"><path style=" stroke:none;fill-rule:nonzero;fill:#fffcef;fill-opacity:1;" d="M 547.46875 466.019531 L 572.777344 470.277344 L 569.179688 491.660156 L 543.871094 487.398438 Z M 547.46875 466.019531 "/></g></g></g><g clip-rule="nonzero" clip-path="url(#9a6976316e)"><g clip-rule="nonzero" clip-path="url(#8ff3bfb9e4)"><g clip-rule="nonzero" clip-path="url(#b38f246b84)"><path style=" stroke:none;fill-rule:nonzero;fill:#864a1e;fill-opacity:1;" d="M 562.816406 486.882812 C 562.816406 486.882812 567.023438 487.59375 566.332031 480.582031 C 566.332031 480.582031 565.445312 477.308594 561.632812 479.773438 C 561.632812 479.773438 553.367188 481.8125 562.816406 486.882812 Z M 562.816406 486.882812 "/></g></g></g><g clip-rule="nonzero" clip-path="url(#38a4002aa7)"><g clip-rule="nonzero" clip-path="url(#a0627a9d92)"><g clip-rule="nonzero" clip-path="url(#cc0242815f)"><path style=" stroke:none;fill-rule:nonzero;fill:#864a1e;fill-opacity:1;" d="M 565.242188 475.121094 C 565.242188 475.121094 567.304688 475.472656 566.964844 472.035156 C 566.964844 472.035156 566.53125 470.429688 564.664062 471.636719 C 564.664062 471.636719 560.613281 472.636719 565.242188 475.121094 Z M 565.242188 475.121094 "/></g></g></g><g clip-rule="nonzero" clip-path="url(#2004df5d63)"><g clip-rule="nonzero" clip-path="url(#3cd6f948f2)"><g clip-rule="nonzero" clip-path="url(#c5576ebedb)"><path style=" stroke:none;fill-rule:nonzero;fill:#864a1e;fill-opacity:1;" d="M 571.234375 479.234375 C 571.234375 479.234375 570.820312 486.617188 574.355469 484.363281 C 577.882812 482.109375 579.3125 480.84375 579.3125 480.84375 C 579.3125 480.84375 574.042969 472.757812 572.640625 476 C 571.234375 479.234375 571.234375 479.234375 571.234375 479.234375 Z M 571.234375 479.234375 "/></g></g></g><g clip-rule="nonzero" clip-path="url(#19115a7859)"><path style=" stroke:none;fill-rule:nonzero;fill:#000000;fill-opacity:1;" d="M 396.324219 559.480469 C 394.722656 559.480469 393.425781 558.1875 393.425781 556.585938 L 393.425781 549.722656 C 393.425781 548.125 394.722656 546.828125 396.324219 546.828125 C 397.921875 546.828125 399.21875 548.125 399.21875 549.722656 L 399.21875 556.585938 C 399.21875 558.183594 397.921875 559.480469 396.324219 559.480469 Z M 396.324219 559.480469 "/></g><path style=" stroke:none;fill-rule:nonzero;fill:#000000;fill-opacity:0.08;" d="M 403.84375 561.582031 C 402.460938 560.78125 401.988281 559.011719 402.785156 557.625 L 406.21875 551.683594 C 407.019531 550.300781 408.789062 549.824219 410.175781 550.625 C 411.558594 551.425781 412.035156 553.195312 411.234375 554.582031 L 407.800781 560.523438 C 407 561.90625 405.230469 562.378906 403.84375 561.582031 Z M 403.84375 561.582031 "/><path style=" stroke:none;fill-rule:nonzero;fill:#000000;fill-opacity:0.16;" d="M 409.308594 567.160156 C 408.511719 565.773438 408.988281 564.003906 410.371094 563.207031 L 416.316406 559.777344 C 417.703125 558.980469 419.472656 559.457031 420.269531 560.839844 C 421.070312 562.226562 420.59375 563.996094 419.210938 564.792969 L 413.261719 568.222656 C 411.878906 569.019531 410.109375 568.546875 409.308594 567.160156 Z M 409.308594 567.160156 "/><g clip-rule="nonzero" clip-path="url(#9e2a761841)"><path style=" stroke:none;fill-rule:nonzero;fill:#000000;fill-opacity:0.24;" d="M 411.25 574.726562 C 411.25 573.128906 412.546875 571.832031 414.148438 571.835938 L 421.007812 571.839844 C 422.609375 571.839844 423.902344 573.140625 423.902344 574.738281 C 423.902344 576.335938 422.605469 577.632812 421.003906 577.632812 L 414.140625 577.625 C 412.542969 577.625 411.246094 576.328125 411.25 574.726562 Z M 411.25 574.726562 "/></g><path style=" stroke:none;fill-rule:nonzero;fill:#000000;fill-opacity:0.32;" d="M 409.144531 582.25 C 409.945312 580.863281 411.714844 580.394531 413.097656 581.195312 L 419.035156 584.632812 C 420.421875 585.433594 420.890625 587.207031 420.089844 588.589844 C 419.289062 589.972656 417.519531 590.445312 416.136719 589.644531 L 410.199219 586.203125 C 408.8125 585.402344 408.339844 583.632812 409.144531 582.25 Z M 409.144531 582.25 "/><path style=" stroke:none;fill-rule:nonzero;fill:#000000;fill-opacity:0.4;" d="M 403.558594 587.707031 C 404.941406 586.910156 406.710938 587.386719 407.511719 588.773438 L 410.929688 594.722656 C 411.730469 596.109375 411.25 597.878906 409.863281 598.675781 C 408.476562 599.472656 406.710938 598.996094 405.910156 597.609375 L 402.492188 591.660156 C 401.695312 590.273438 402.171875 588.503906 403.558594 587.707031 Z M 403.558594 587.707031 "/><g clip-rule="nonzero" clip-path="url(#320d4343ee)"><path style=" stroke:none;fill-rule:nonzero;fill:#000000;fill-opacity:0.48;" d="M 395.988281 589.640625 C 397.589844 589.640625 398.882812 590.941406 398.878906 592.539062 L 398.863281 599.402344 C 398.863281 601 397.5625 602.292969 395.964844 602.292969 C 394.367188 602.289062 393.070312 600.988281 393.074219 599.390625 L 393.089844 592.527344 C 393.089844 590.929688 394.390625 589.636719 395.988281 589.640625 Z M 395.988281 589.640625 "/></g><path style=" stroke:none;fill-rule:nonzero;fill:#000000;fill-opacity:0.56;" d="M 388.46875 587.527344 C 389.851562 588.328125 390.324219 590.101562 389.519531 591.484375 L 386.078125 597.417969 C 385.273438 598.800781 383.503906 599.273438 382.121094 598.46875 C 380.738281 597.667969 380.265625 595.894531 381.070312 594.511719 L 384.511719 588.578125 C 385.316406 587.195312 387.085938 586.722656 388.46875 587.527344 Z M 388.46875 587.527344 "/><path style=" stroke:none;fill-rule:nonzero;fill:#000000;fill-opacity:0.64;" d="M 383.015625 581.9375 C 383.8125 583.324219 383.332031 585.09375 381.945312 585.886719 L 375.996094 589.304688 C 374.609375 590.101562 372.839844 589.621094 372.042969 588.234375 C 371.246094 586.847656 371.726562 585.078125 373.113281 584.28125 L 379.066406 580.863281 C 380.449219 580.070312 382.21875 580.546875 383.015625 581.9375 Z M 383.015625 581.9375 "/><g clip-rule="nonzero" clip-path="url(#c88824f0cc)"><path style=" stroke:none;fill-rule:nonzero;fill:#000000;fill-opacity:0.72;" d="M 381.089844 574.367188 C 381.085938 575.964844 379.785156 577.257812 378.1875 577.253906 L 371.324219 577.234375 C 369.726562 577.230469 368.433594 575.929688 368.4375 574.332031 C 368.441406 572.730469 369.742188 571.4375 371.34375 571.445312 L 378.203125 571.464844 C 379.804688 571.464844 381.09375 572.765625 381.089844 574.367188 Z M 381.089844 574.367188 "/></g><path style=" stroke:none;fill-rule:nonzero;fill:#000000;fill-opacity:0.8;" d="M 383.210938 566.847656 C 382.40625 568.230469 380.632812 568.699219 379.253906 567.894531 L 373.320312 564.445312 C 371.9375 563.640625 371.46875 561.867188 372.273438 560.488281 C 373.078125 559.105469 374.851562 558.636719 376.230469 559.441406 L 382.164062 562.890625 C 383.546875 563.695312 384.015625 565.464844 383.210938 566.847656 Z M 383.210938 566.847656 "/><path style=" stroke:none;fill-rule:nonzero;fill:#000000;fill-opacity:0.9;" d="M 388.808594 561.398438 C 387.417969 562.195312 385.652344 561.714844 384.855469 560.324219 L 381.445312 554.371094 C 380.652344 552.984375 381.132812 551.214844 382.519531 550.417969 C 383.90625 549.625 385.675781 550.105469 386.46875 551.492188 L 389.882812 557.449219 C 390.675781 558.835938 390.195312 560.605469 388.808594 561.398438 Z M 388.808594 561.398438 "/><g style="fill:#ff9800;fill-opacity:1;"><g transform="translate(533.520363, 493.949925)"><path style="stroke:none" d="M 10.890625 -45.03125 C 8.660156 -45.03125 6.8125 -45.691406 5.34375 -47.015625 C 3.875 -48.347656 3.140625 -50.128906 3.140625 -52.359375 C 3.140625 -54.734375 3.875 -56.546875 5.34375 -57.796875 C 6.8125 -59.054688 8.59375 -59.6875 10.6875 -59.6875 C 12.21875 -59.6875 13.71875 -59.476562 15.1875 -59.0625 C 16.65625 -58.644531 18.085938 -58.15625 19.484375 -57.59375 C 18.921875 -59.6875 18.359375 -61.847656 17.796875 -64.078125 C 17.242188 -66.316406 17.457031 -68.414062 18.4375 -70.375 C 19.6875 -72.882812 21.847656 -74.140625 24.921875 -74.140625 C 27.859375 -74.140625 29.953125 -72.882812 31.203125 -70.375 C 32.316406 -68.414062 32.59375 -66.316406 32.03125 -64.078125 C 31.476562 -61.847656 30.851562 -59.6875 30.15625 -57.59375 C 31.550781 -58.15625 33.015625 -58.644531 34.546875 -59.0625 C 36.085938 -59.476562 37.554688 -59.6875 38.953125 -59.6875 C 41.191406 -59.6875 43.007812 -59.054688 44.40625 -57.796875 C 45.800781 -56.546875 46.5 -54.734375 46.5 -52.359375 C 46.5 -50.128906 45.800781 -48.347656 44.40625 -47.015625 C 43.007812 -45.691406 41.191406 -45.03125 38.953125 -45.03125 C 37.554688 -45.03125 36.085938 -45.238281 34.546875 -45.65625 C 33.015625 -46.070312 31.550781 -46.5625 30.15625 -47.125 C 30.851562 -45.03125 31.476562 -42.863281 32.03125 -40.625 C 32.59375 -38.394531 32.316406 -36.300781 31.203125 -34.34375 C 29.953125 -31.832031 27.859375 -30.578125 24.921875 -30.578125 C 21.847656 -30.578125 19.6875 -31.832031 18.4375 -34.34375 C 17.457031 -36.300781 17.242188 -38.394531 17.796875 -40.625 C 18.359375 -42.863281 18.921875 -45.03125 19.484375 -47.125 C 18.085938 -46.5625 16.6875 -46.070312 15.28125 -45.65625 C 13.882812 -45.238281 12.421875 -45.03125 10.890625 -45.03125 Z M 10.890625 -45.03125 "/></g></g></g></svg>